<svg xmlns="http://www.w3.org/2000/svg" xmlns:xlink="http://www.w3.org/1999/xlink" width="500" zoomAndPan="magnify" viewBox="0 0 375 374.999991" height="500" preserveAspectRatio="xMidYMid meet" version="1.2"><defs><clipPath id="f3fbabcb16"><path d="M 19.140625 103.828125 L 137 103.828125 L 137 226.828125 L 19.140625 226.828125 Z M 19.140625 103.828125 "/></clipPath></defs><g id="b5375a5bc9"><g style="fill:#000000;fill-opacity:1;"><g transform="translate(137.865363, 155.805623)"><path style="stroke:none" d="M 18.21875 -14.515625 L 11.71875 -14.515625 L 11.71875 0 L 3.546875 0 L 3.546875 -39.65625 L 18.28125 -39.65625 C 22.957031 -39.65625 26.566406 -38.609375 29.109375 -36.515625 C 31.648438 -34.429688 32.921875 -31.484375 32.921875 -27.671875 C 32.921875 -24.960938 32.335938 -22.703125 31.171875 -20.890625 C 30.003906 -19.085938 28.226562 -17.65625 25.84375 -16.59375 L 34.421875 -0.375 L 34.421875 0 L 25.65625 0 Z M 11.71875 -21.140625 L 18.296875 -21.140625 C 20.347656 -21.140625 21.9375 -21.660156 23.0625 -22.703125 C 24.195312 -23.742188 24.765625 -25.179688 24.765625 -27.015625 C 24.765625 -28.890625 24.234375 -30.359375 23.171875 -31.421875 C 22.109375 -32.492188 20.476562 -33.03125 18.28125 -33.03125 L 11.71875 -33.03125 Z M 11.71875 -21.140625 "/></g></g><g style="fill:#000000;fill-opacity:1;"><g transform="translate(173.462536, 155.805623)"><path style="stroke:none" d="M 16.59375 0.546875 C 12.269531 0.546875 8.75 -0.773438 6.03125 -3.421875 C 3.320312 -6.078125 1.96875 -9.613281 1.96875 -14.03125 L 1.96875 -14.796875 C 1.96875 -17.753906 2.535156 -20.398438 3.671875 -22.734375 C 4.816406 -25.066406 6.4375 -26.863281 8.53125 -28.125 C 10.632812 -29.382812 13.03125 -30.015625 15.71875 -30.015625 C 19.75 -30.015625 22.921875 -28.742188 25.234375 -26.203125 C 27.546875 -23.660156 28.703125 -20.054688 28.703125 -15.390625 L 28.703125 -12.171875 L 9.9375 -12.171875 C 10.195312 -10.242188 10.960938 -8.695312 12.234375 -7.53125 C 13.515625 -6.375 15.140625 -5.796875 17.109375 -5.796875 C 20.140625 -5.796875 22.507812 -6.894531 24.21875 -9.09375 L 28.078125 -4.765625 C 26.898438 -3.097656 25.300781 -1.796875 23.28125 -0.859375 C 21.269531 0.078125 19.039062 0.546875 16.59375 0.546875 Z M 15.6875 -23.640625 C 14.125 -23.640625 12.859375 -23.113281 11.890625 -22.0625 C 10.921875 -21.007812 10.296875 -19.503906 10.015625 -17.546875 L 20.96875 -17.546875 L 20.96875 -18.171875 C 20.9375 -19.910156 20.460938 -21.253906 19.546875 -22.203125 C 18.640625 -23.160156 17.351562 -23.640625 15.6875 -23.640625 Z M 15.6875 -23.640625 "/></g></g><g style="fill:#000000;fill-opacity:1;"><g transform="translate(203.612552, 155.805623)"><path style="stroke:none" d="M 18.984375 -8.140625 C 18.984375 -9.109375 18.503906 -9.867188 17.546875 -10.421875 C 16.597656 -10.972656 15.070312 -11.46875 12.96875 -11.90625 C 5.957031 -13.375 2.453125 -16.351562 2.453125 -20.84375 C 2.453125 -23.457031 3.535156 -25.640625 5.703125 -27.390625 C 7.878906 -29.140625 10.71875 -30.015625 14.21875 -30.015625 C 17.957031 -30.015625 20.945312 -29.132812 23.1875 -27.375 C 25.4375 -25.613281 26.5625 -23.328125 26.5625 -20.515625 L 18.6875 -20.515625 C 18.6875 -21.640625 18.320312 -22.566406 17.59375 -23.296875 C 16.863281 -24.035156 15.726562 -24.40625 14.1875 -24.40625 C 12.863281 -24.40625 11.835938 -24.101562 11.109375 -23.5 C 10.378906 -22.90625 10.015625 -22.144531 10.015625 -21.21875 C 10.015625 -20.34375 10.425781 -19.632812 11.25 -19.09375 C 12.082031 -18.5625 13.476562 -18.097656 15.4375 -17.703125 C 17.40625 -17.316406 19.0625 -16.878906 20.40625 -16.390625 C 24.5625 -14.867188 26.640625 -12.226562 26.640625 -8.46875 C 26.640625 -5.78125 25.484375 -3.601562 23.171875 -1.9375 C 20.867188 -0.28125 17.894531 0.546875 14.25 0.546875 C 11.78125 0.546875 9.585938 0.109375 7.671875 -0.765625 C 5.753906 -1.648438 4.25 -2.859375 3.15625 -4.390625 C 2.070312 -5.929688 1.53125 -7.59375 1.53125 -9.375 L 8.984375 -9.375 C 9.054688 -7.96875 9.570312 -6.890625 10.53125 -6.140625 C 11.5 -5.398438 12.789062 -5.03125 14.40625 -5.03125 C 15.914062 -5.03125 17.054688 -5.316406 17.828125 -5.890625 C 18.597656 -6.460938 18.984375 -7.210938 18.984375 -8.140625 Z M 18.984375 -8.140625 "/></g></g><g style="fill:#000000;fill-opacity:1;"><g transform="translate(232.291835, 155.805623)"><path style="stroke:none" d="M 20.671875 -3 C 18.734375 -0.632812 16.046875 0.546875 12.609375 0.546875 C 9.453125 0.546875 7.039062 -0.359375 5.375 -2.171875 C 3.71875 -3.992188 2.867188 -6.65625 2.828125 -10.15625 L 2.828125 -29.46875 L 10.703125 -29.46875 L 10.703125 -10.4375 C 10.703125 -7.363281 12.101562 -5.828125 14.90625 -5.828125 C 17.570312 -5.828125 19.40625 -6.753906 20.40625 -8.609375 L 20.40625 -29.46875 L 28.296875 -29.46875 L 28.296875 0 L 20.890625 0 Z M 20.671875 -3 "/></g></g><g style="fill:#000000;fill-opacity:1;"><g transform="translate(263.504047, 155.805623)"><path style="stroke:none" d="M 10.40625 -29.46875 L 10.65625 -26.171875 C 12.738281 -28.734375 15.5625 -30.015625 19.125 -30.015625 C 22.914062 -30.015625 25.519531 -28.515625 26.9375 -25.515625 C 29.007812 -28.515625 31.960938 -30.015625 35.796875 -30.015625 C 38.984375 -30.015625 41.359375 -29.082031 42.921875 -27.21875 C 44.484375 -25.363281 45.265625 -22.566406 45.265625 -18.828125 L 45.265625 0 L 37.375 0 L 37.375 -18.796875 C 37.375 -20.460938 37.046875 -21.679688 36.390625 -22.453125 C 35.734375 -23.222656 34.578125 -23.609375 32.921875 -23.609375 C 30.566406 -23.609375 28.9375 -22.484375 28.03125 -20.234375 L 28.046875 0 L 20.1875 0 L 20.1875 -18.765625 C 20.1875 -20.472656 19.847656 -21.707031 19.171875 -22.46875 C 18.503906 -23.226562 17.363281 -23.609375 15.75 -23.609375 C 13.507812 -23.609375 11.890625 -22.6875 10.890625 -20.84375 L 10.890625 0 L 3.015625 0 L 3.015625 -29.46875 Z M 10.40625 -29.46875 "/></g></g><g style="fill:#000000;fill-opacity:1;"><g transform="translate(311.793097, 155.805623)"><path style="stroke:none" d="M 16.59375 0.546875 C 12.269531 0.546875 8.75 -0.773438 6.03125 -3.421875 C 3.320312 -6.078125 1.96875 -9.613281 1.96875 -14.03125 L 1.96875 -14.796875 C 1.96875 -17.753906 2.535156 -20.398438 3.671875 -22.734375 C 4.816406 -25.066406 6.4375 -26.863281 8.53125 -28.125 C 10.632812 -29.382812 13.03125 -30.015625 15.71875 -30.015625 C 19.75 -30.015625 22.921875 -28.742188 25.234375 -26.203125 C 27.546875 -23.660156 28.703125 -20.054688 28.703125 -15.390625 L 28.703125 -12.171875 L 9.9375 -12.171875 C 10.195312 -10.242188 10.960938 -8.695312 12.234375 -7.53125 C 13.515625 -6.375 15.140625 -5.796875 17.109375 -5.796875 C 20.140625 -5.796875 22.507812 -6.894531 24.21875 -9.09375 L 28.078125 -4.765625 C 26.898438 -3.097656 25.300781 -1.796875 23.28125 -0.859375 C 21.269531 0.078125 19.039062 0.546875 16.59375 0.546875 Z M 15.6875 -23.640625 C 14.125 -23.640625 12.859375 -23.113281 11.890625 -22.0625 C 10.921875 -21.007812 10.296875 -19.503906 10.015625 -17.546875 L 20.96875 -17.546875 L 20.96875 -18.171875 C 20.9375 -19.910156 20.460938 -21.253906 19.546875 -22.203125 C 18.640625 -23.160156 17.351562 -23.640625 15.6875 -23.640625 Z M 15.6875 -23.640625 "/></g></g><g style="fill:#000000;fill-opacity:1;"><g transform="translate(341.951468, 155.805623)"><path style="stroke:none" d=""/></g></g><g style="fill:#000000;fill-opacity:1;"><g transform="translate(137.865363, 212.271766)"><path style="stroke:none" d="M 34.921875 -5.015625 C 33.453125 -3.253906 31.375 -1.882812 28.6875 -0.90625 C 26 0.0625 23.019531 0.546875 19.75 0.546875 C 16.3125 0.546875 13.300781 -0.203125 10.71875 -1.703125 C 8.132812 -3.203125 6.132812 -5.375 4.71875 -8.21875 C 3.3125 -11.070312 2.59375 -14.425781 2.5625 -18.28125 L 2.5625 -20.96875 C 2.5625 -24.925781 3.226562 -28.351562 4.5625 -31.25 C 5.894531 -34.144531 7.816406 -36.359375 10.328125 -37.890625 C 12.847656 -39.429688 15.796875 -40.203125 19.171875 -40.203125 C 23.878906 -40.203125 27.554688 -39.078125 30.203125 -36.828125 C 32.859375 -34.585938 34.429688 -31.328125 34.921875 -27.046875 L 26.96875 -27.046875 C 26.601562 -29.316406 25.796875 -30.976562 24.546875 -32.03125 C 23.304688 -33.082031 21.597656 -33.609375 19.421875 -33.609375 C 16.640625 -33.609375 14.519531 -32.5625 13.0625 -30.46875 C 11.613281 -28.382812 10.882812 -25.28125 10.875 -21.15625 L 10.875 -18.625 C 10.875 -14.46875 11.660156 -11.328125 13.234375 -9.203125 C 14.816406 -7.078125 17.132812 -6.015625 20.1875 -6.015625 C 23.25 -6.015625 25.4375 -6.671875 26.75 -7.984375 L 26.75 -14.8125 L 19.3125 -14.8125 L 19.3125 -20.84375 L 34.921875 -20.84375 Z M 34.921875 -5.015625 "/></g></g><g style="fill:#000000;fill-opacity:1;"><g transform="translate(175.859285, 212.271766)"><path style="stroke:none" d="M 16.59375 0.546875 C 12.269531 0.546875 8.75 -0.773438 6.03125 -3.421875 C 3.320312 -6.078125 1.96875 -9.613281 1.96875 -14.03125 L 1.96875 -14.796875 C 1.96875 -17.753906 2.535156 -20.398438 3.671875 -22.734375 C 4.816406 -25.066406 6.4375 -26.863281 8.53125 -28.125 C 10.632812 -29.382812 13.03125 -30.015625 15.71875 -30.015625 C 19.75 -30.015625 22.921875 -28.742188 25.234375 -26.203125 C 27.546875 -23.660156 28.703125 -20.054688 28.703125 -15.390625 L 28.703125 -12.171875 L 9.9375 -12.171875 C 10.195312 -10.242188 10.960938 -8.695312 12.234375 -7.53125 C 13.515625 -6.375 15.140625 -5.796875 17.109375 -5.796875 C 20.140625 -5.796875 22.507812 -6.894531 24.21875 -9.09375 L 28.078125 -4.765625 C 26.898438 -3.097656 25.300781 -1.796875 23.28125 -0.859375 C 21.269531 0.078125 19.039062 0.546875 16.59375 0.546875 Z M 15.6875 -23.640625 C 14.125 -23.640625 12.859375 -23.113281 11.890625 -22.0625 C 10.921875 -21.007812 10.296875 -19.503906 10.015625 -17.546875 L 20.96875 -17.546875 L 20.96875 -18.171875 C 20.9375 -19.910156 20.460938 -21.253906 19.546875 -22.203125 C 18.640625 -23.160156 17.351562 -23.640625 15.6875 -23.640625 Z M 15.6875 -23.640625 "/></g></g><g style="fill:#000000;fill-opacity:1;"><g transform="translate(206.009301, 212.271766)"><path style="stroke:none" d="M 10.265625 -29.46875 L 10.515625 -26.0625 C 12.617188 -28.695312 15.441406 -30.015625 18.984375 -30.015625 C 22.109375 -30.015625 24.429688 -29.097656 25.953125 -27.265625 C 27.484375 -25.429688 28.265625 -22.6875 28.296875 -19.03125 L 28.296875 0 L 20.421875 0 L 20.421875 -18.84375 C 20.421875 -20.519531 20.054688 -21.734375 19.328125 -22.484375 C 18.609375 -23.234375 17.40625 -23.609375 15.71875 -23.609375 C 13.5 -23.609375 11.835938 -22.664062 10.734375 -20.78125 L 10.734375 0 L 2.859375 0 L 2.859375 -29.46875 Z M 10.265625 -29.46875 "/></g></g><g style="fill:#000000;fill-opacity:1;"><g transform="translate(237.248748, 212.271766)"><path style="stroke:none" d="M 16.59375 0.546875 C 12.269531 0.546875 8.75 -0.773438 6.03125 -3.421875 C 3.320312 -6.078125 1.96875 -9.613281 1.96875 -14.03125 L 1.96875 -14.796875 C 1.96875 -17.753906 2.535156 -20.398438 3.671875 -22.734375 C 4.816406 -25.066406 6.4375 -26.863281 8.53125 -28.125 C 10.632812 -29.382812 13.03125 -30.015625 15.71875 -30.015625 C 19.75 -30.015625 22.921875 -28.742188 25.234375 -26.203125 C 27.546875 -23.660156 28.703125 -20.054688 28.703125 -15.390625 L 28.703125 -12.171875 L 9.9375 -12.171875 C 10.195312 -10.242188 10.960938 -8.695312 12.234375 -7.53125 C 13.515625 -6.375 15.140625 -5.796875 17.109375 -5.796875 C 20.140625 -5.796875 22.507812 -6.894531 24.21875 -9.09375 L 28.078125 -4.765625 C 26.898438 -3.097656 25.300781 -1.796875 23.28125 -0.859375 C 21.269531 0.078125 19.039062 0.546875 16.59375 0.546875 Z M 15.6875 -23.640625 C 14.125 -23.640625 12.859375 -23.113281 11.890625 -22.0625 C 10.921875 -21.007812 10.296875 -19.503906 10.015625 -17.546875 L 20.96875 -17.546875 L 20.96875 -18.171875 C 20.9375 -19.910156 20.460938 -21.253906 19.546875 -22.203125 C 18.640625 -23.160156 17.351562 -23.640625 15.6875 -23.640625 Z M 15.6875 -23.640625 "/></g></g><g style="fill:#000000;fill-opacity:1;"><g transform="translate(267.398764, 212.271766)"><path style="stroke:none" d="M 19.578125 -22.09375 C 18.503906 -22.238281 17.5625 -22.3125 16.75 -22.3125 C 13.769531 -22.3125 11.816406 -21.300781 10.890625 -19.28125 L 10.890625 0 L 3.015625 0 L 3.015625 -29.46875 L 10.453125 -29.46875 L 10.671875 -25.953125 C 12.253906 -28.660156 14.441406 -30.015625 17.234375 -30.015625 C 18.109375 -30.015625 18.925781 -29.894531 19.6875 -29.65625 Z M 19.578125 -22.09375 "/></g></g><g style="fill:#000000;fill-opacity:1;"><g transform="translate(287.743896, 212.271766)"><path style="stroke:none" d="M 28.546875 -29.109375 C 28.546875 -27.191406 28.0625 -25.488281 27.09375 -24 C 26.132812 -22.507812 24.8125 -21.316406 23.125 -20.421875 C 25.050781 -19.492188 26.578125 -18.21875 27.703125 -16.59375 C 28.828125 -14.96875 29.390625 -13.0625 29.390625 -10.875 C 29.390625 -7.34375 28.191406 -4.554688 25.796875 -2.515625 C 23.398438 -0.472656 20.140625 0.546875 16.015625 0.546875 C 11.890625 0.546875 8.617188 -0.476562 6.203125 -2.53125 C 3.796875 -4.582031 2.59375 -7.363281 2.59375 -10.875 C 2.59375 -13.0625 3.15625 -14.972656 4.28125 -16.609375 C 5.40625 -18.242188 6.921875 -19.515625 8.828125 -20.421875 C 7.140625 -21.316406 5.816406 -22.507812 4.859375 -24 C 3.910156 -25.488281 3.4375 -27.191406 3.4375 -29.109375 C 3.4375 -32.492188 4.5625 -35.1875 6.8125 -37.1875 C 9.0625 -39.195312 12.117188 -40.203125 15.984375 -40.203125 C 19.835938 -40.203125 22.894531 -39.207031 25.15625 -37.21875 C 27.414062 -35.226562 28.546875 -32.523438 28.546875 -29.109375 Z M 21.484375 -11.4375 C 21.484375 -13.164062 20.984375 -14.546875 19.984375 -15.578125 C 18.992188 -16.609375 17.648438 -17.125 15.953125 -17.125 C 14.285156 -17.125 12.953125 -16.609375 11.953125 -15.578125 C 10.953125 -14.554688 10.453125 -13.175781 10.453125 -11.4375 C 10.453125 -9.75 10.941406 -8.382812 11.921875 -7.34375 C 12.910156 -6.3125 14.273438 -5.796875 16.015625 -5.796875 C 17.722656 -5.796875 19.0625 -6.296875 20.03125 -7.296875 C 21 -8.296875 21.484375 -9.675781 21.484375 -11.4375 Z M 20.671875 -28.734375 C 20.671875 -30.273438 20.257812 -31.515625 19.4375 -32.453125 C 18.625 -33.390625 17.472656 -33.859375 15.984375 -33.859375 C 14.515625 -33.859375 13.367188 -33.398438 12.546875 -32.484375 C 11.734375 -31.578125 11.328125 -30.328125 11.328125 -28.734375 C 11.328125 -27.148438 11.734375 -25.878906 12.546875 -24.921875 C 13.367188 -23.960938 14.523438 -23.484375 16.015625 -23.484375 C 17.503906 -23.484375 18.648438 -23.960938 19.453125 -24.921875 C 20.265625 -25.878906 20.671875 -27.148438 20.671875 -28.734375 Z M 20.671875 -28.734375 "/></g></g><g clip-rule="nonzero" clip-path="url(#f3fbabcb16)"><path style=" stroke:none;fill-rule:nonzero;fill:#000000;fill-opacity:1;" d="M 19.476562 105.949219 L 19.476562 224.707031 C 19.476562 224.988281 19.53125 225.257812 19.636719 225.519531 C 19.746094 225.777344 19.898438 226.007812 20.097656 226.207031 C 20.296875 226.40625 20.523438 226.558594 20.785156 226.667969 C 21.042969 226.773438 21.3125 226.828125 21.59375 226.828125 L 114.703125 226.828125 C 114.980469 226.828125 115.253906 226.773438 115.511719 226.667969 C 115.769531 226.558594 116 226.40625 116.199219 226.207031 C 116.398438 226.007812 116.550781 225.777344 116.65625 225.519531 C 116.765625 225.257812 116.816406 224.988281 116.816406 224.707031 L 116.816406 189.207031 L 132.351562 165.328125 L 134.804688 161.574219 C 135.117188 161.097656 135.378906 160.59375 135.589844 160.0625 C 135.800781 159.53125 135.960938 158.984375 136.066406 158.425781 C 136.171875 157.863281 136.21875 157.296875 136.214844 156.726562 C 136.207031 156.15625 136.144531 155.589844 136.03125 155.03125 C 135.914062 154.472656 135.742188 153.929688 135.519531 153.402344 C 135.296875 152.878906 135.023438 152.378906 134.703125 151.90625 C 134.382812 151.4375 134.019531 151 133.613281 150.601562 C 133.203125 150.199219 132.761719 149.84375 132.285156 149.53125 L 131.820312 149.234375 C 131.34375 148.917969 130.839844 148.65625 130.3125 148.441406 C 129.78125 148.230469 129.238281 148.070312 128.679688 147.960938 C 128.117188 147.855469 127.550781 147.804688 126.980469 147.8125 C 126.410156 147.816406 125.847656 147.878906 125.289062 147.996094 C 124.730469 148.113281 124.191406 148.285156 123.664062 148.507812 C 123.140625 148.734375 122.644531 149.007812 122.171875 149.328125 C 121.699219 149.652344 121.265625 150.015625 120.867188 150.425781 C 120.46875 150.832031 120.113281 151.277344 119.800781 151.757812 L 117.875 154.726562 L 116.777344 156.421875 L 116.777344 121.261719 C 116.769531 120.703125 116.570312 120.222656 116.183594 119.820312 L 100.882812 104.445312 C 100.492188 104.03125 100.011719 103.828125 99.445312 103.828125 L 21.53125 103.828125 C 21.253906 103.835938 20.992188 103.898438 20.738281 104.007812 C 20.488281 104.121094 20.265625 104.273438 20.074219 104.472656 C 19.882812 104.667969 19.734375 104.898438 19.632812 105.152344 C 19.527344 105.40625 19.476562 105.671875 19.476562 105.949219 Z M 106.238281 197.964844 L 98.089844 192.621094 L 120.183594 158.667969 L 128.328125 164.015625 Z M 96.90625 196.734375 L 102.765625 200.574219 L 96.226562 204.179688 Z M 129.597656 152.605469 L 130.066406 152.902344 C 130.316406 153.066406 130.550781 153.253906 130.769531 153.464844 C 130.984375 153.675781 131.175781 153.90625 131.347656 154.152344 C 131.519531 154.402344 131.664062 154.667969 131.78125 154.945312 C 131.902344 155.222656 131.992188 155.507812 132.050781 155.804688 C 132.113281 156.101562 132.148438 156.398438 132.148438 156.699219 C 132.152344 157.003906 132.125 157.300781 132.070312 157.597656 C 132.015625 157.894531 131.929688 158.183594 131.816406 158.464844 C 131.703125 158.746094 131.5625 159.011719 131.398438 159.261719 L 130.550781 160.558594 L 122.40625 155.234375 L 123.25 153.917969 C 123.417969 153.667969 123.605469 153.433594 123.816406 153.21875 C 124.027344 153.003906 124.257812 152.8125 124.507812 152.644531 C 124.757812 152.476562 125.019531 152.332031 125.296875 152.214844 C 125.574219 152.097656 125.859375 152.007812 126.152344 151.949219 C 126.449219 151.886719 126.746094 151.855469 127.046875 151.851562 C 127.347656 151.851562 127.644531 151.878906 127.941406 151.933594 C 128.238281 151.988281 128.523438 152.074219 128.804688 152.1875 C 129.082031 152.300781 129.347656 152.4375 129.597656 152.605469 Z M 110.554688 119.96875 L 100.777344 119.96875 L 100.777344 110.191406 Z M 23.582031 107.921875 L 96.671875 107.921875 L 96.671875 122.046875 C 96.671875 122.328125 96.726562 122.597656 96.832031 122.855469 C 96.941406 123.117188 97.09375 123.347656 97.292969 123.542969 C 97.492188 123.742188 97.71875 123.898438 97.980469 124.003906 C 98.238281 124.113281 98.507812 124.167969 98.789062 124.167969 L 112.734375 124.167969 L 112.734375 162.679688 L 93.519531 192.027344 C 93.457031 192.144531 93.40625 192.261719 93.371094 192.386719 C 93.320312 192.519531 93.277344 192.652344 93.246094 192.792969 L 91.890625 207.742188 C 91.863281 208.117188 91.929688 208.476562 92.089844 208.820312 C 92.253906 209.160156 92.488281 209.4375 92.800781 209.652344 C 93.128906 209.839844 93.480469 209.933594 93.859375 209.933594 C 94.234375 209.933594 94.589844 209.839844 94.917969 209.652344 L 107.761719 202.566406 C 107.972656 202.460938 108.148438 202.3125 108.289062 202.121094 L 108.394531 201.996094 L 112.628906 195.632812 L 112.628906 222.734375 L 23.582031 222.734375 Z M 23.582031 107.921875 "/></g><path style=" stroke:none;fill-rule:nonzero;fill:#000000;fill-opacity:1;" d="M 36.785156 134.324219 L 100.269531 134.535156 C 100.425781 134.574219 100.585938 134.597656 100.746094 134.597656 C 100.90625 134.601562 101.066406 134.585938 101.222656 134.554688 C 101.378906 134.519531 101.53125 134.46875 101.675781 134.402344 C 101.824219 134.332031 101.960938 134.25 102.085938 134.152344 C 102.214844 134.050781 102.328125 133.941406 102.429688 133.816406 C 102.53125 133.6875 102.617188 133.554688 102.6875 133.410156 C 102.757812 133.265625 102.808594 133.113281 102.847656 132.957031 C 102.882812 132.800781 102.902344 132.640625 102.902344 132.480469 C 102.902344 132.316406 102.882812 132.160156 102.847656 132 C 102.808594 131.84375 102.757812 131.695312 102.6875 131.550781 C 102.617188 131.402344 102.53125 131.269531 102.429688 131.144531 C 102.328125 131.019531 102.214844 130.90625 102.085938 130.808594 C 101.960938 130.707031 101.824219 130.625 101.675781 130.554688 C 101.53125 130.488281 101.378906 130.4375 101.222656 130.40625 C 101.066406 130.371094 100.90625 130.355469 100.746094 130.359375 C 100.585938 130.363281 100.425781 130.382812 100.269531 130.421875 L 36.785156 130.230469 C 36.628906 130.1875 36.46875 130.164062 36.308594 130.160156 C 36.144531 130.152344 35.984375 130.164062 35.824219 130.195312 C 35.664062 130.226562 35.511719 130.277344 35.363281 130.34375 C 35.214844 130.410156 35.074219 130.492188 34.945312 130.59375 C 34.816406 130.691406 34.699219 130.804688 34.597656 130.929688 C 34.496094 131.054688 34.40625 131.191406 34.335938 131.339844 C 34.261719 131.484375 34.207031 131.636719 34.171875 131.796875 C 34.132812 131.953125 34.117188 132.113281 34.117188 132.277344 C 34.117188 132.441406 34.132812 132.601562 34.171875 132.761719 C 34.207031 132.917969 34.261719 133.070312 34.335938 133.21875 C 34.40625 133.363281 34.496094 133.5 34.597656 133.625 C 34.699219 133.75 34.816406 133.863281 34.945312 133.960938 C 35.074219 134.0625 35.214844 134.144531 35.363281 134.210938 C 35.511719 134.277344 35.664062 134.328125 35.824219 134.359375 C 35.984375 134.390625 36.144531 134.402344 36.308594 134.398438 C 36.46875 134.390625 36.628906 134.367188 36.785156 134.324219 Z M 36.785156 134.324219 "/><path style=" stroke:none;fill-rule:nonzero;fill:#000000;fill-opacity:1;" d="M 36.785156 153.769531 L 100.269531 153.984375 C 100.550781 153.984375 100.820312 153.929688 101.078125 153.820312 C 101.339844 153.714844 101.566406 153.5625 101.765625 153.363281 C 101.964844 153.164062 102.117188 152.933594 102.226562 152.671875 C 102.332031 152.414062 102.386719 152.144531 102.386719 151.863281 C 102.386719 151.582031 102.332031 151.308594 102.226562 151.050781 C 102.117188 150.789062 101.964844 150.5625 101.765625 150.363281 C 101.566406 150.164062 101.339844 150.011719 101.078125 149.902344 C 100.820312 149.796875 100.550781 149.742188 100.269531 149.742188 L 36.785156 149.53125 C 36.628906 149.488281 36.46875 149.460938 36.308594 149.457031 C 36.144531 149.449219 35.984375 149.464844 35.824219 149.496094 C 35.664062 149.527344 35.511719 149.574219 35.363281 149.640625 C 35.214844 149.710938 35.074219 149.792969 34.945312 149.890625 C 34.816406 149.988281 34.699219 150.101562 34.597656 150.226562 C 34.496094 150.355469 34.40625 150.488281 34.335938 150.636719 C 34.261719 150.78125 34.207031 150.933594 34.171875 151.09375 C 34.132812 151.253906 34.117188 151.414062 34.117188 151.574219 C 34.117188 151.738281 34.132812 151.898438 34.171875 152.058594 C 34.207031 152.21875 34.261719 152.371094 34.335938 152.515625 C 34.40625 152.660156 34.496094 152.796875 34.597656 152.921875 C 34.699219 153.050781 34.816406 153.160156 34.945312 153.261719 C 35.074219 153.359375 35.214844 153.441406 35.363281 153.507812 C 35.511719 153.578125 35.664062 153.625 35.824219 153.65625 C 35.984375 153.6875 36.144531 153.699219 36.308594 153.695312 C 36.46875 153.6875 36.628906 153.664062 36.785156 153.621094 Z M 36.785156 153.769531 "/><path style=" stroke:none;fill-rule:nonzero;fill:#000000;fill-opacity:1;" d="M 87.191406 169.335938 L 36.785156 169.125 C 36.628906 169.085938 36.472656 169.0625 36.3125 169.0625 C 36.152344 169.058594 35.992188 169.074219 35.835938 169.105469 C 35.675781 169.140625 35.523438 169.191406 35.378906 169.257812 C 35.234375 169.328125 35.097656 169.410156 34.96875 169.511719 C 34.84375 169.609375 34.730469 169.722656 34.628906 169.847656 C 34.527344 169.972656 34.441406 170.105469 34.371094 170.25 C 34.300781 170.394531 34.246094 170.546875 34.210938 170.703125 C 34.175781 170.863281 34.15625 171.019531 34.15625 171.183594 C 34.15625 171.34375 34.175781 171.503906 34.210938 171.660156 C 34.246094 171.816406 34.300781 171.96875 34.371094 172.113281 C 34.441406 172.257812 34.527344 172.390625 34.628906 172.515625 C 34.730469 172.640625 34.84375 172.753906 34.96875 172.855469 C 35.097656 172.953125 35.234375 173.035156 35.378906 173.105469 C 35.523438 173.171875 35.675781 173.222656 35.835938 173.257812 C 35.992188 173.289062 36.152344 173.304688 36.3125 173.300781 C 36.472656 173.300781 36.628906 173.277344 36.785156 173.238281 L 87.191406 173.429688 C 87.347656 173.472656 87.507812 173.496094 87.671875 173.503906 C 87.835938 173.507812 87.996094 173.496094 88.15625 173.464844 C 88.3125 173.433594 88.46875 173.382812 88.617188 173.316406 C 88.765625 173.25 88.902344 173.167969 89.03125 173.066406 C 89.160156 172.96875 89.277344 172.855469 89.382812 172.730469 C 89.484375 172.605469 89.574219 172.46875 89.644531 172.324219 C 89.714844 172.175781 89.769531 172.023438 89.808594 171.867188 C 89.84375 171.707031 89.863281 171.546875 89.863281 171.382812 C 89.863281 171.21875 89.84375 171.058594 89.808594 170.902344 C 89.769531 170.742188 89.714844 170.589844 89.644531 170.445312 C 89.574219 170.296875 89.484375 170.160156 89.382812 170.035156 C 89.277344 169.910156 89.160156 169.796875 89.03125 169.699219 C 88.902344 169.597656 88.765625 169.515625 88.617188 169.449219 C 88.46875 169.382812 88.3125 169.332031 88.15625 169.300781 C 87.996094 169.269531 87.835938 169.257812 87.671875 169.265625 C 87.507812 169.269531 87.347656 169.292969 87.191406 169.335938 Z M 87.191406 169.335938 "/><path style=" stroke:none;fill-rule:nonzero;fill:#000000;fill-opacity:1;" d="M 80.441406 199.257812 L 37.65625 198.984375 C 37.195312 199.109375 36.816406 199.363281 36.527344 199.742188 C 36.238281 200.121094 36.09375 200.550781 36.09375 201.03125 C 36.09375 201.507812 36.238281 201.9375 36.527344 202.320312 C 36.816406 202.699219 37.195312 202.953125 37.65625 203.078125 L 80.484375 203.289062 C 80.640625 203.328125 80.796875 203.347656 80.960938 203.351562 C 81.121094 203.355469 81.28125 203.339844 81.4375 203.304688 C 81.59375 203.273438 81.746094 203.222656 81.890625 203.15625 C 82.039062 203.085938 82.171875 203.003906 82.300781 202.902344 C 82.425781 202.804688 82.542969 202.691406 82.644531 202.566406 C 82.742188 202.441406 82.828125 202.308594 82.902344 202.164062 C 82.972656 202.015625 83.023438 201.867188 83.0625 201.710938 C 83.097656 201.550781 83.113281 201.394531 83.113281 201.230469 C 83.113281 201.070312 83.097656 200.910156 83.0625 200.753906 C 83.023438 200.597656 82.972656 200.445312 82.902344 200.300781 C 82.828125 200.15625 82.742188 200.023438 82.644531 199.898438 C 82.542969 199.769531 82.425781 199.660156 82.300781 199.558594 C 82.171875 199.460938 82.039062 199.378906 81.890625 199.308594 C 81.746094 199.242188 81.59375 199.191406 81.4375 199.15625 C 81.28125 199.125 81.121094 199.109375 80.960938 199.113281 C 80.796875 199.113281 80.640625 199.136719 80.484375 199.175781 Z M 80.441406 199.257812 "/><g style="fill:#000000;fill-opacity:1;"><g transform="translate(29.768297, 263.240373)"><path style="stroke:none" d="M 13.21875 -5.53125 L 4.640625 -5.53125 L 1.75 0 L -1.171875 0 L 10.328125 -21.171875 L 12.71875 -21.171875 L 16.90625 0 L 14.21875 0 Z M 5.84375 -7.828125 L 12.8125 -7.828125 L 11.046875 -17.703125 Z M 5.84375 -7.828125 "/></g></g><g style="fill:#000000;fill-opacity:1;"><g transform="translate(48.757169, 263.240373)"><path style="stroke:none" d="M 3.78125 0 L 1.0625 0 L 4.734375 -21.171875 L 7.453125 -21.171875 Z M 3.78125 0 "/></g></g><g style="fill:#000000;fill-opacity:1;"><g transform="translate(56.754013, 263.240373)"><path style="stroke:none" d=""/></g></g><g style="fill:#000000;fill-opacity:1;"><g transform="translate(64.052952, 263.240373)"><path style="stroke:none" d="M 10.234375 -13.328125 L 9 -13.46875 C 7.3125 -13.46875 5.984375 -12.707031 5.015625 -11.1875 L 3.078125 0 L 0.453125 0 L 3.1875 -15.734375 L 5.734375 -15.75 L 5.34375 -13.921875 C 6.457031 -15.378906 7.769531 -16.085938 9.28125 -16.046875 C 9.59375 -16.046875 10.007812 -15.972656 10.53125 -15.828125 Z M 10.234375 -13.328125 "/></g></g><g style="fill:#000000;fill-opacity:1;"><g transform="translate(73.692733, 263.240373)"><path style="stroke:none" d="M 7.25 0.296875 C 5.289062 0.253906 3.757812 -0.46875 2.65625 -1.875 C 1.550781 -3.28125 1.085938 -5.078125 1.265625 -7.265625 L 1.34375 -7.890625 C 1.5 -9.453125 1.957031 -10.878906 2.71875 -12.171875 C 3.488281 -13.460938 4.421875 -14.429688 5.515625 -15.078125 C 6.609375 -15.734375 7.789062 -16.050781 9.0625 -16.03125 C 10.675781 -15.988281 11.941406 -15.445312 12.859375 -14.40625 C 13.785156 -13.375 14.289062 -11.96875 14.375 -10.1875 C 14.40625 -9.5625 14.390625 -8.929688 14.328125 -8.296875 L 14.15625 -7.09375 L 3.875 -7.09375 C 3.707031 -5.664062 3.945312 -4.453125 4.59375 -3.453125 C 5.238281 -2.460938 6.195312 -1.945312 7.46875 -1.90625 C 9.019531 -1.863281 10.457031 -2.5625 11.78125 -4 L 13.296875 -2.71875 C 12.628906 -1.769531 11.773438 -1.023438 10.734375 -0.484375 C 9.691406 0.046875 8.53125 0.304688 7.25 0.296875 Z M 8.921875 -13.828125 C 7.835938 -13.859375 6.890625 -13.488281 6.078125 -12.71875 C 5.273438 -11.957031 4.632812 -10.820312 4.15625 -9.3125 L 11.8125 -9.296875 L 11.859375 -9.53125 C 12.015625 -10.75 11.816406 -11.757812 11.265625 -12.5625 C 10.722656 -13.375 9.941406 -13.796875 8.921875 -13.828125 Z M 8.921875 -13.828125 "/></g></g><g style="fill:#000000;fill-opacity:1;"><g transform="translate(89.133914, 263.240373)"><path style="stroke:none" d="M 10.1875 -4.265625 C 10.332031 -5.347656 9.738281 -6.113281 8.40625 -6.5625 L 5.671875 -7.359375 C 3.359375 -8.148438 2.242188 -9.46875 2.328125 -11.3125 C 2.390625 -12.695312 3.019531 -13.832031 4.21875 -14.71875 C 5.414062 -15.601562 6.828125 -16.039062 8.453125 -16.03125 C 10.035156 -16.007812 11.320312 -15.546875 12.3125 -14.640625 C 13.3125 -13.734375 13.789062 -12.550781 13.75 -11.09375 L 11.140625 -11.109375 C 11.160156 -11.890625 10.910156 -12.523438 10.390625 -13.015625 C 9.878906 -13.515625 9.195312 -13.773438 8.34375 -13.796875 C 7.4375 -13.816406 6.648438 -13.59375 5.984375 -13.125 C 5.378906 -12.695312 5.023438 -12.128906 4.921875 -11.421875 C 4.796875 -10.503906 5.359375 -9.835938 6.609375 -9.421875 L 7.921875 -9.0625 C 9.722656 -8.59375 11 -7.984375 11.75 -7.234375 C 12.507812 -6.492188 12.863281 -5.570312 12.8125 -4.46875 C 12.75 -3.488281 12.425781 -2.632812 11.84375 -1.90625 C 11.269531 -1.175781 10.5 -0.617188 9.53125 -0.234375 C 8.5625 0.140625 7.523438 0.316406 6.421875 0.296875 C 4.753906 0.273438 3.378906 -0.210938 2.296875 -1.171875 C 1.210938 -2.128906 0.691406 -3.359375 0.734375 -4.859375 L 3.359375 -4.84375 C 3.359375 -3.957031 3.640625 -3.25 4.203125 -2.71875 C 4.765625 -2.1875 5.535156 -1.921875 6.515625 -1.921875 C 7.472656 -1.898438 8.300781 -2.097656 9 -2.515625 C 9.695312 -2.941406 10.09375 -3.523438 10.1875 -4.265625 Z M 10.1875 -4.265625 "/></g></g><g style="fill:#000000;fill-opacity:1;"><g transform="translate(104.167981, 263.240373)"><path style="stroke:none" d="M 10.4375 -1.5625 C 9.207031 -0.289062 7.644531 0.328125 5.75 0.296875 C 4.238281 0.253906 3.125 -0.28125 2.40625 -1.3125 C 1.6875 -2.351562 1.414062 -3.769531 1.59375 -5.5625 L 3.28125 -15.734375 L 5.921875 -15.734375 L 4.21875 -5.53125 C 4.164062 -5.101562 4.15625 -4.6875 4.1875 -4.28125 C 4.238281 -3.582031 4.445312 -3.03125 4.8125 -2.625 C 5.175781 -2.226562 5.691406 -2.019531 6.359375 -2 C 8.234375 -1.9375 9.6875 -2.695312 10.71875 -4.28125 L 12.6875 -15.734375 L 15.328125 -15.734375 L 12.59375 0 L 10.109375 0 Z M 10.4375 -1.5625 "/></g></g><g style="fill:#000000;fill-opacity:1;"><g transform="translate(120.234375, 263.240373)"><path style="stroke:none" d="M 5.640625 -15.75 L 5.3125 -13.984375 C 6.625 -15.378906 8.21875 -16.0625 10.09375 -16.03125 C 11.09375 -16.007812 11.9375 -15.78125 12.625 -15.34375 C 13.320312 -14.90625 13.800781 -14.289062 14.0625 -13.5 C 15.53125 -15.21875 17.269531 -16.0625 19.28125 -16.03125 C 20.851562 -15.988281 22.007812 -15.457031 22.75 -14.4375 C 23.5 -13.414062 23.78125 -12.050781 23.59375 -10.34375 L 21.859375 0 L 19.234375 0 L 20.953125 -10.375 C 21.015625 -10.875 21.015625 -11.332031 20.953125 -11.75 C 20.765625 -13.070312 19.898438 -13.742188 18.359375 -13.765625 C 17.398438 -13.785156 16.53125 -13.488281 15.75 -12.875 C 14.96875 -12.257812 14.46875 -11.453125 14.25 -10.453125 L 12.46875 0 L 9.8125 0 L 11.5625 -10.359375 C 11.6875 -11.429688 11.519531 -12.257812 11.0625 -12.84375 C 10.613281 -13.425781 9.914062 -13.722656 8.96875 -13.734375 C 7.332031 -13.773438 6.03125 -13.03125 5.0625 -11.5 L 3.0625 0 L 0.4375 0 L 3.171875 -15.734375 Z M 5.640625 -15.75 "/></g></g><g style="fill:#000000;fill-opacity:1;"><g transform="translate(145.693427, 263.240373)"><path style="stroke:none" d="M 7.25 0.296875 C 5.289062 0.253906 3.757812 -0.46875 2.65625 -1.875 C 1.550781 -3.28125 1.085938 -5.078125 1.265625 -7.265625 L 1.34375 -7.890625 C 1.5 -9.453125 1.957031 -10.878906 2.71875 -12.171875 C 3.488281 -13.460938 4.421875 -14.429688 5.515625 -15.078125 C 6.609375 -15.734375 7.789062 -16.050781 9.0625 -16.03125 C 10.675781 -15.988281 11.941406 -15.445312 12.859375 -14.40625 C 13.785156 -13.375 14.289062 -11.96875 14.375 -10.1875 C 14.40625 -9.5625 14.390625 -8.929688 14.328125 -8.296875 L 14.15625 -7.09375 L 3.875 -7.09375 C 3.707031 -5.664062 3.945312 -4.453125 4.59375 -3.453125 C 5.238281 -2.460938 6.195312 -1.945312 7.46875 -1.90625 C 9.019531 -1.863281 10.457031 -2.5625 11.78125 -4 L 13.296875 -2.71875 C 12.628906 -1.769531 11.773438 -1.023438 10.734375 -0.484375 C 9.691406 0.046875 8.53125 0.304688 7.25 0.296875 Z M 8.921875 -13.828125 C 7.835938 -13.859375 6.890625 -13.488281 6.078125 -12.71875 C 5.273438 -11.957031 4.632812 -10.820312 4.15625 -9.3125 L 11.8125 -9.296875 L 11.859375 -9.53125 C 12.015625 -10.75 11.816406 -11.757812 11.265625 -12.5625 C 10.722656 -13.375 9.941406 -13.796875 8.921875 -13.828125 Z M 8.921875 -13.828125 "/></g></g><g style="fill:#000000;fill-opacity:1;"><g transform="translate(161.134607, 263.240373)"><path style="stroke:none" d=""/></g></g><g style="fill:#000000;fill-opacity:1;"><g transform="translate(168.433545, 263.240373)"><path style="stroke:none" d="M 7.25 0.296875 C 5.289062 0.253906 3.757812 -0.46875 2.65625 -1.875 C 1.550781 -3.28125 1.085938 -5.078125 1.265625 -7.265625 L 1.34375 -7.890625 C 1.5 -9.453125 1.957031 -10.878906 2.71875 -12.171875 C 3.488281 -13.460938 4.421875 -14.429688 5.515625 -15.078125 C 6.609375 -15.734375 7.789062 -16.050781 9.0625 -16.03125 C 10.675781 -15.988281 11.941406 -15.445312 12.859375 -14.40625 C 13.785156 -13.375 14.289062 -11.96875 14.375 -10.1875 C 14.40625 -9.5625 14.390625 -8.929688 14.328125 -8.296875 L 14.15625 -7.09375 L 3.875 -7.09375 C 3.707031 -5.664062 3.945312 -4.453125 4.59375 -3.453125 C 5.238281 -2.460938 6.195312 -1.945312 7.46875 -1.90625 C 9.019531 -1.863281 10.457031 -2.5625 11.78125 -4 L 13.296875 -2.71875 C 12.628906 -1.769531 11.773438 -1.023438 10.734375 -0.484375 C 9.691406 0.046875 8.53125 0.304688 7.25 0.296875 Z M 8.921875 -13.828125 C 7.835938 -13.859375 6.890625 -13.488281 6.078125 -12.71875 C 5.273438 -11.957031 4.632812 -10.820312 4.15625 -9.3125 L 11.8125 -9.296875 L 11.859375 -9.53125 C 12.015625 -10.75 11.816406 -11.757812 11.265625 -12.5625 C 10.722656 -13.375 9.941406 -13.796875 8.921875 -13.828125 Z M 8.921875 -13.828125 "/></g></g><g style="fill:#000000;fill-opacity:1;"><g transform="translate(183.874726, 263.240373)"><path style="stroke:none" d="M 5.671875 -15.75 L 5.296875 -13.75 C 6.710938 -15.300781 8.320312 -16.0625 10.125 -16.03125 C 11.601562 -15.988281 12.695312 -15.472656 13.40625 -14.484375 C 14.113281 -13.492188 14.375 -12.101562 14.1875 -10.3125 L 12.484375 0 L 9.84375 0 L 11.578125 -10.359375 C 11.628906 -10.828125 11.632812 -11.265625 11.59375 -11.671875 C 11.425781 -13.035156 10.625 -13.726562 9.1875 -13.75 C 7.601562 -13.78125 6.21875 -12.9375 5.03125 -11.21875 L 3.078125 0 L 0.453125 0 L 3.1875 -15.734375 Z M 5.671875 -15.75 "/></g></g><g style="fill:#000000;fill-opacity:1;"><g transform="translate(199.955653, 263.240373)"><path style="stroke:none" d="M 5.359375 -13.8125 C 6.742188 -15.3125 8.332031 -16.046875 10.125 -16.015625 C 11.59375 -15.992188 12.679688 -15.484375 13.390625 -14.484375 C 14.109375 -13.492188 14.375 -12.101562 14.1875 -10.3125 L 12.484375 0 L 9.84375 0 L 11.578125 -10.359375 C 11.628906 -10.828125 11.632812 -11.265625 11.59375 -11.671875 C 11.425781 -13.035156 10.625 -13.726562 9.1875 -13.75 C 7.582031 -13.789062 6.195312 -12.945312 5.03125 -11.21875 L 3.078125 0 L 0.453125 0 L 4.328125 -22.34375 L 6.96875 -22.34375 Z M 5.359375 -13.8125 "/></g></g><g style="fill:#000000;fill-opacity:1;"><g transform="translate(216.007502, 263.240373)"><path style="stroke:none" d="M 10.078125 0 C 10.003906 -0.28125 9.96875 -0.554688 9.96875 -0.828125 L 10.015625 -1.65625 C 8.578125 -0.320312 7.046875 0.328125 5.421875 0.296875 C 4.035156 0.273438 2.90625 -0.160156 2.03125 -1.015625 C 1.164062 -1.878906 0.773438 -2.957031 0.859375 -4.25 C 0.953125 -5.914062 1.679688 -7.210938 3.046875 -8.140625 C 4.410156 -9.078125 6.203125 -9.546875 8.421875 -9.546875 L 11.171875 -9.546875 L 11.34375 -10.796875 C 11.4375 -11.734375 11.253906 -12.472656 10.796875 -13.015625 C 10.335938 -13.566406 9.644531 -13.851562 8.71875 -13.875 C 7.820312 -13.894531 7.023438 -13.671875 6.328125 -13.203125 C 5.640625 -12.742188 5.21875 -12.140625 5.0625 -11.390625 L 2.40625 -11.375 C 2.5 -12.289062 2.859375 -13.101562 3.484375 -13.8125 C 4.117188 -14.53125 4.929688 -15.082031 5.921875 -15.46875 C 6.910156 -15.863281 7.929688 -16.054688 8.984375 -16.046875 C 10.617188 -16.003906 11.890625 -15.503906 12.796875 -14.546875 C 13.710938 -13.585938 14.097656 -12.320312 13.953125 -10.75 L 12.6875 -2.953125 L 12.609375 -1.828125 C 12.585938 -1.296875 12.644531 -0.769531 12.78125 -0.25 L 12.75 0 Z M 5.953125 -2.03125 C 6.796875 -2.007812 7.59375 -2.207031 8.34375 -2.625 C 9.09375 -3.050781 9.738281 -3.640625 10.28125 -4.390625 L 10.84375 -7.640625 L 8.859375 -7.65625 C 7.203125 -7.65625 5.929688 -7.390625 5.046875 -6.859375 C 4.160156 -6.335938 3.660156 -5.597656 3.546875 -4.640625 C 3.460938 -3.898438 3.632812 -3.285156 4.0625 -2.796875 C 4.5 -2.304688 5.128906 -2.050781 5.953125 -2.03125 Z M 5.953125 -2.03125 "/></g></g><g style="fill:#000000;fill-opacity:1;"><g transform="translate(231.870351, 263.240373)"><path style="stroke:none" d="M 5.671875 -15.75 L 5.296875 -13.75 C 6.710938 -15.300781 8.320312 -16.0625 10.125 -16.03125 C 11.601562 -15.988281 12.695312 -15.472656 13.40625 -14.484375 C 14.113281 -13.492188 14.375 -12.101562 14.1875 -10.3125 L 12.484375 0 L 9.84375 0 L 11.578125 -10.359375 C 11.628906 -10.828125 11.632812 -11.265625 11.59375 -11.671875 C 11.425781 -13.035156 10.625 -13.726562 9.1875 -13.75 C 7.601562 -13.78125 6.21875 -12.9375 5.03125 -11.21875 L 3.078125 0 L 0.453125 0 L 3.1875 -15.734375 Z M 5.671875 -15.75 "/></g></g><g style="fill:#000000;fill-opacity:1;"><g transform="translate(247.951267, 263.240373)"><path style="stroke:none" d="M 7.09375 -1.890625 C 8.03125 -1.867188 8.878906 -2.140625 9.640625 -2.703125 C 10.398438 -3.273438 10.894531 -4.019531 11.125 -4.9375 L 13.609375 -4.953125 C 13.460938 -3.960938 13.066406 -3.0625 12.421875 -2.25 C 11.773438 -1.4375 10.960938 -0.800781 9.984375 -0.34375 C 9.003906 0.101562 8.003906 0.316406 6.984375 0.296875 C 5.671875 0.273438 4.5625 -0.0664062 3.65625 -0.734375 C 2.75 -1.398438 2.082031 -2.328125 1.65625 -3.515625 C 1.226562 -4.703125 1.082031 -6.035156 1.21875 -7.515625 L 1.296875 -8.25 C 1.484375 -9.757812 1.925781 -11.109375 2.625 -12.296875 C 3.320312 -13.492188 4.226562 -14.421875 5.34375 -15.078125 C 6.46875 -15.742188 7.710938 -16.0625 9.078125 -16.03125 C 10.722656 -15.988281 12.039062 -15.429688 13.03125 -14.359375 C 14.019531 -13.296875 14.515625 -11.945312 14.515625 -10.3125 L 12.0625 -10.328125 C 12.039062 -11.347656 11.753906 -12.175781 11.203125 -12.8125 C 10.648438 -13.445312 9.898438 -13.785156 8.953125 -13.828125 C 7.585938 -13.859375 6.453125 -13.347656 5.546875 -12.296875 C 4.640625 -11.253906 4.078125 -9.789062 3.859375 -7.90625 L 3.8125 -7.53125 C 3.75 -6.914062 3.738281 -6.273438 3.78125 -5.609375 C 3.84375 -4.472656 4.160156 -3.578125 4.734375 -2.921875 C 5.304688 -2.265625 6.09375 -1.921875 7.09375 -1.890625 Z M 7.09375 -1.890625 "/></g></g><g style="fill:#000000;fill-opacity:1;"><g transform="translate(263.217959, 263.240373)"><path style="stroke:none" d="M 7.25 0.296875 C 5.289062 0.253906 3.757812 -0.46875 2.65625 -1.875 C 1.550781 -3.28125 1.085938 -5.078125 1.265625 -7.265625 L 1.34375 -7.890625 C 1.5 -9.453125 1.957031 -10.878906 2.71875 -12.171875 C 3.488281 -13.460938 4.421875 -14.429688 5.515625 -15.078125 C 6.609375 -15.734375 7.789062 -16.050781 9.0625 -16.03125 C 10.675781 -15.988281 11.941406 -15.445312 12.859375 -14.40625 C 13.785156 -13.375 14.289062 -11.96875 14.375 -10.1875 C 14.40625 -9.5625 14.390625 -8.929688 14.328125 -8.296875 L 14.15625 -7.09375 L 3.875 -7.09375 C 3.707031 -5.664062 3.945312 -4.453125 4.59375 -3.453125 C 5.238281 -2.460938 6.195312 -1.945312 7.46875 -1.90625 C 9.019531 -1.863281 10.457031 -2.5625 11.78125 -4 L 13.296875 -2.71875 C 12.628906 -1.769531 11.773438 -1.023438 10.734375 -0.484375 C 9.691406 0.046875 8.53125 0.304688 7.25 0.296875 Z M 8.921875 -13.828125 C 7.835938 -13.859375 6.890625 -13.488281 6.078125 -12.71875 C 5.273438 -11.957031 4.632812 -10.820312 4.15625 -9.3125 L 11.8125 -9.296875 L 11.859375 -9.53125 C 12.015625 -10.75 11.816406 -11.757812 11.265625 -12.5625 C 10.722656 -13.375 9.941406 -13.796875 8.921875 -13.828125 Z M 8.921875 -13.828125 "/></g></g><g style="fill:#000000;fill-opacity:1;"><g transform="translate(278.659151, 263.240373)"><path style="stroke:none" d="M 5.640625 -15.75 L 5.3125 -13.984375 C 6.625 -15.378906 8.21875 -16.0625 10.09375 -16.03125 C 11.09375 -16.007812 11.9375 -15.78125 12.625 -15.34375 C 13.320312 -14.90625 13.800781 -14.289062 14.0625 -13.5 C 15.53125 -15.21875 17.269531 -16.0625 19.28125 -16.03125 C 20.851562 -15.988281 22.007812 -15.457031 22.75 -14.4375 C 23.5 -13.414062 23.78125 -12.050781 23.59375 -10.34375 L 21.859375 0 L 19.234375 0 L 20.953125 -10.375 C 21.015625 -10.875 21.015625 -11.332031 20.953125 -11.75 C 20.765625 -13.070312 19.898438 -13.742188 18.359375 -13.765625 C 17.398438 -13.785156 16.53125 -13.488281 15.75 -12.875 C 14.96875 -12.257812 14.46875 -11.453125 14.25 -10.453125 L 12.46875 0 L 9.8125 0 L 11.5625 -10.359375 C 11.6875 -11.429688 11.519531 -12.257812 11.0625 -12.84375 C 10.613281 -13.425781 9.914062 -13.722656 8.96875 -13.734375 C 7.332031 -13.773438 6.03125 -13.03125 5.0625 -11.5 L 3.0625 0 L 0.4375 0 L 3.171875 -15.734375 Z M 5.640625 -15.75 "/></g></g><g style="fill:#000000;fill-opacity:1;"><g transform="translate(304.118202, 263.240373)"><path style="stroke:none" d="M 7.25 0.296875 C 5.289062 0.253906 3.757812 -0.46875 2.65625 -1.875 C 1.550781 -3.28125 1.085938 -5.078125 1.265625 -7.265625 L 1.34375 -7.890625 C 1.5 -9.453125 1.957031 -10.878906 2.71875 -12.171875 C 3.488281 -13.460938 4.421875 -14.429688 5.515625 -15.078125 C 6.609375 -15.734375 7.789062 -16.050781 9.0625 -16.03125 C 10.675781 -15.988281 11.941406 -15.445312 12.859375 -14.40625 C 13.785156 -13.375 14.289062 -11.96875 14.375 -10.1875 C 14.40625 -9.5625 14.390625 -8.929688 14.328125 -8.296875 L 14.15625 -7.09375 L 3.875 -7.09375 C 3.707031 -5.664062 3.945312 -4.453125 4.59375 -3.453125 C 5.238281 -2.460938 6.195312 -1.945312 7.46875 -1.90625 C 9.019531 -1.863281 10.457031 -2.5625 11.78125 -4 L 13.296875 -2.71875 C 12.628906 -1.769531 11.773438 -1.023438 10.734375 -0.484375 C 9.691406 0.046875 8.53125 0.304688 7.25 0.296875 Z M 8.921875 -13.828125 C 7.835938 -13.859375 6.890625 -13.488281 6.078125 -12.71875 C 5.273438 -11.957031 4.632812 -10.820312 4.15625 -9.3125 L 11.8125 -9.296875 L 11.859375 -9.53125 C 12.015625 -10.75 11.816406 -11.757812 11.265625 -12.5625 C 10.722656 -13.375 9.941406 -13.796875 8.921875 -13.828125 Z M 8.921875 -13.828125 "/></g></g><g style="fill:#000000;fill-opacity:1;"><g transform="translate(319.559371, 263.240373)"><path style="stroke:none" d="M 5.671875 -15.75 L 5.296875 -13.75 C 6.710938 -15.300781 8.320312 -16.0625 10.125 -16.03125 C 11.601562 -15.988281 12.695312 -15.472656 13.40625 -14.484375 C 14.113281 -13.492188 14.375 -12.101562 14.1875 -10.3125 L 12.484375 0 L 9.84375 0 L 11.578125 -10.359375 C 11.628906 -10.828125 11.632812 -11.265625 11.59375 -11.671875 C 11.425781 -13.035156 10.625 -13.726562 9.1875 -13.75 C 7.601562 -13.78125 6.21875 -12.9375 5.03125 -11.21875 L 3.078125 0 L 0.453125 0 L 3.1875 -15.734375 Z M 5.671875 -15.75 "/></g></g><g style="fill:#000000;fill-opacity:1;"><g transform="translate(335.64031, 263.240373)"><path style="stroke:none" d="M 7.40625 -19.546875 L 6.734375 -15.734375 L 9.59375 -15.734375 L 9.234375 -13.65625 L 6.390625 -13.65625 L 4.734375 -3.875 C 4.710938 -3.613281 4.707031 -3.378906 4.71875 -3.171875 C 4.789062 -2.410156 5.207031 -2.03125 5.96875 -2.03125 C 6.28125 -2.03125 6.703125 -2.082031 7.234375 -2.1875 L 7.03125 0.015625 C 6.40625 0.191406 5.769531 0.28125 5.125 0.28125 C 4.070312 0.257812 3.285156 -0.125 2.765625 -0.875 C 2.242188 -1.625 2.039062 -2.632812 2.15625 -3.90625 L 3.75 -13.65625 L 0.96875 -13.65625 L 1.34375 -15.734375 L 4.109375 -15.734375 L 4.78125 -19.546875 Z M 7.40625 -19.546875 "/></g></g></g></svg>